<svg width="17" height="14" viewBox="0 0 17 14" fill="none" xmlns="http://www.w3.org/2000/svg">
<path d="M16.5002 6.77466C16.5002 7.15435 16.218 7.46815 15.852 7.51781L15.7502 7.52466L0.7502 7.52466C0.335987 7.52466 0.000200272 7.18887 0.000200272 6.77466C0.000200272 6.39496 0.282354 6.08117 0.64843 6.0315L0.7502 6.02466L15.7502 6.02466C16.1644 6.02466 16.5002 6.36044 16.5002 6.77466Z" fill="black"/>
<path d="M7.32919 12.2675C7.62272 12.5598 7.62374 13.0347 7.33148 13.3282C7.06578 13.595 6.64917 13.6201 6.35509 13.4029L6.27082 13.3305L0.220818 7.30647C-0.0468187 7.03998 -0.0711656 6.62187 0.147789 6.3278L0.220774 6.24357L6.27077 0.218573C6.56427 -0.0737131 7.03915 -0.0727299 7.33143 0.220769C7.59715 0.487586 7.62049 0.904299 7.40203 1.19746L7.32924 1.28143L1.8132 6.7753L7.32919 12.2675Z" fill="black"/>
</svg>
