<svg width="20" height="20" viewBox="0 0 20 20" fill="none" xmlns="http://www.w3.org/2000/svg">
<mask id="mask0_65_429" style="mask-type:luminance" maskUnits="userSpaceOnUse" x="0" y="0" width="20" height="20">
<path fill-rule="evenodd" clip-rule="evenodd" d="M0 0H19.953V19.9539H0V0Z" fill="white"/>
</mask>
<g mask="url(#mask0_65_429)">
<path fill-rule="evenodd" clip-rule="evenodd" d="M5.651 1.5C3.13 1.5 1.5 3.229 1.5 5.904V14.05C1.5 16.726 3.13 18.454 5.651 18.454H14.297C16.822 18.454 18.453 16.726 18.453 14.05V5.904C18.455 4.541 18.039 3.403 17.251 2.614C16.523 1.885 15.504 1.5 14.302 1.5H5.651ZM14.297 19.954H5.651C2.271 19.954 0 17.581 0 14.05V5.904C0 2.373 2.271 0 5.651 0H14.302C15.91 0 17.297 0.537 18.312 1.554C19.373 2.616 19.955 4.161 19.953 5.905V14.05C19.953 17.581 17.68 19.954 14.297 19.954Z" fill="white"/>
</g>
<path fill-rule="evenodd" clip-rule="evenodd" d="M6.85574 5.68945C6.25174 5.68945 5.76074 6.18045 5.76074 6.78545C5.76074 7.38945 6.25174 7.88045 6.85674 7.88045C7.46074 7.88045 7.95274 7.38945 7.95274 6.78645C7.95174 6.18145 7.45974 5.69045 6.85574 5.68945ZM6.85674 9.38045C5.42474 9.38045 4.26074 8.21645 4.26074 6.78545C4.26074 5.35345 5.42474 4.18945 6.85674 4.18945C8.28774 4.19045 9.45174 5.35445 9.45274 6.78445V6.78545C9.45274 8.21645 8.28874 9.38045 6.85674 9.38045Z" fill="white"/>
<path fill-rule="evenodd" clip-rule="evenodd" d="M1.74893 18.1113C1.62493 18.1113 1.49893 18.0803 1.38293 18.0153C1.02093 17.8123 0.893934 17.3553 1.09593 16.9943C1.15593 16.8863 2.59093 14.3493 4.16993 13.0493C5.42193 12.0193 6.76993 12.5853 7.85593 13.0423C8.49493 13.3113 9.09893 13.5653 9.67893 13.5653C10.2109 13.5653 10.8779 12.6253 11.4679 11.7963C12.2869 10.6403 13.2169 9.33228 14.5789 9.33228C16.7489 9.33228 18.6219 11.2683 19.6289 12.3083L19.7449 12.4283C20.0329 12.7253 20.0259 13.2003 19.7289 13.4893C19.4339 13.7783 18.9589 13.7713 18.6689 13.4733L18.5509 13.3513C17.6989 12.4703 16.1129 10.8323 14.5789 10.8323C13.9909 10.8323 13.3009 11.8053 12.6899 12.6643C11.8519 13.8443 10.9849 15.0653 9.67893 15.0653C8.79593 15.0653 7.98693 14.7253 7.27393 14.4243C6.13993 13.9463 5.62593 13.7933 5.12293 14.2073C3.75893 15.3313 2.41693 17.7053 2.40393 17.7283C2.26693 17.9733 2.01193 18.1113 1.74893 18.1113Z" fill="white"/>
</svg>
